<?xml version="1.0" standalone="no"?>
<!DOCTYPE svg PUBLIC "-//W3C//DTD SVG 20010904//EN"
 "http://www.w3.org/TR/2001/REC-SVG-20010904/DTD/svg10.dtd">
<svg version="1.0" xmlns="http://www.w3.org/2000/svg"
 width="1200.000000pt" height="1200.000000pt" viewBox="0 0 1200.000000 1200.000000"
 preserveAspectRatio="xMidYMid meet">

<g transform="translate(0.000000,1200.000000) scale(0.100000,-0.100000)"
fill="#000000" stroke="none">
<path d="M760 6000 l0 -5240 5240 0 5240 0 0 5240 0 5240 -5240 0 -5240 0 0
-5240z m5685 3789 c59 -29 95 -88 95 -154 -1 -27 -76 -652 -169 -1387 l-167
-1338 1555 -2 c1696 -3 1572 1 1638 -61 60 -56 67 -148 19 -220 -13 -18 -836
-1010 -1829 -2203 -1231 -1477 -1822 -2179 -1853 -2202 -36 -25 -57 -32 -92
-32 -101 0 -182 78 -182 175 1 27 76 652 169 1387 l167 1338 -1555 2 c-1696 3
-1572 -1 -1638 61 -60 56 -67 148 -19 220 13 18 836 1010 1829 2203 1231 1477
1822 2179 1853 2202 56 39 115 43 179 11z"/>
</g>
</svg>
